<?xml version="1.0" encoding="UTF-8"?>
<svg width="45px" height="49px" viewBox="0 0 45 49" version="1.1" xmlns="http://www.w3.org/2000/svg" xmlns:xlink="http://www.w3.org/1999/xlink">
    <!-- Generator: Sketch 48.1 (47250) - http://www.bohemiancoding.com/sketch -->
    <title>csv</title>
    <desc>Created with Sketch.</desc>
    <defs></defs>
    <g id="DataVisualization_Light-Copy-14" stroke="none" stroke-width="1" fill="none" fill-rule="evenodd" transform="translate(-38.000000, -129.000000)">
        <g id="Folder1" transform="translate(23.000000, 117.000000)" fill-rule="nonzero">
            <g id="Group" transform="translate(15.000000, 0.000000)">
                <g id="csv" transform="translate(0.000000, 12.000000)">
                    <polygon id="Shape" fill="#EFEEEE" points="7.27741935 0 7.27741935 49 33.3851613 49 44.5741935 36.75 44.5741935 0"></polygon>
                    <polygon id="Shape" fill="#ABABAB" points="33.6580645 37 33.6580645 49 44.5741935 37"></polygon>
                    <polygon id="Shape" fill="#DEDEDD" points="22.7419355 49 33.6580645 49 33.6580645 37"></polygon>
                    <polygon id="Shape" fill="#448E47" points="0 12 0 26 30.0193548 26 30.0193548 12"></polygon>
                    <g id="Group" transform="translate(3.638710, 15.000000)" fill="#FFFFFF">
                        <path d="M3.33396774,1.764 C3.19933548,1.478 2.95372258,1.336 2.59712903,1.336 C2.40063871,1.336 2.23871613,1.394 2.11136129,1.512 C1.98400645,1.628 1.88394194,1.814 1.81116774,2.074 C1.73839355,2.334 1.68745161,2.674 1.65834194,3.096 C1.6274129,3.516 1.61467742,4.03 1.61467742,4.638 C1.61467742,5.286 1.63469032,5.81 1.67471613,6.21 C1.71292258,6.61 1.7766,6.918 1.86029032,7.14 C1.94398065,7.362 2.04950323,7.51 2.17685806,7.584 C2.3042129,7.66 2.45158065,7.7 2.61896129,7.7 C2.75723226,7.7 2.88640645,7.674 3.00648387,7.622 C3.12656129,7.57 3.23026452,7.466 3.31759355,7.31 C3.40674194,7.154 3.47587742,6.934 3.525,6.65 C3.57594194,6.366 3.6014129,5.992 3.6014129,5.528 L5.17151613,5.528 C5.17151613,5.99 5.13876774,6.432 5.07327097,6.848 C5.00777419,7.264 4.88405806,7.628 4.70758065,7.94 C4.52746452,8.25 4.2782129,8.494 3.95436774,8.67 C3.63052258,8.846 3.21025161,8.936 2.69355484,8.936 C2.10590323,8.936 1.63469032,8.83 1.28719355,8.624 C0.937877419,8.416 0.670432258,8.116 0.484858065,7.724 C0.299283871,7.332 0.179206452,6.864 0.124625806,6.32 C0.0718645161,5.778 0.0427548387,5.176 0.0427548387,4.522 C0.0427548387,3.874 0.0718645161,3.276 0.124625806,2.728 C0.179206452,2.182 0.301103226,1.71 0.484858065,1.318 C0.672251613,0.928 0.937877419,0.62 1.28719355,0.4 C1.63469032,0.182 2.10590323,0.07 2.69355484,0.07 C3.25573548,0.07 3.69601935,0.17 4.01986452,0.37 C4.34370968,0.57 4.58568387,0.824 4.74396774,1.132 C4.90225161,1.44 5.00595484,1.772 5.04416129,2.128 C5.0841871,2.484 5.1042,2.818 5.1042,3.13 L3.53409677,3.13 C3.53409677,2.5 3.46678065,2.046 3.33396774,1.764 Z" id="Shape"></path>
                        <path d="M8.42270323,6.376 C8.42270323,6.576 8.43907742,6.758 8.46636774,6.92 C8.49729677,7.084 8.55005806,7.222 8.63010968,7.334 C8.71016129,7.448 8.81932258,7.536 8.95395484,7.6 C9.08676774,7.662 9.2577871,7.696 9.45973548,7.696 C9.70170968,7.696 9.91639355,7.61 10.1092452,7.438 C10.3002774,7.266 10.3985226,6.998 10.3985226,6.64 C10.3985226,6.448 10.3730516,6.282 10.3275677,6.142 C10.2802645,6.002 10.2020323,5.876 10.092871,5.766 C9.98189032,5.652 9.83816129,5.552 9.66168387,5.46 C9.48520645,5.368 9.26324516,5.274 9.00125806,5.178 C8.65376129,5.05 8.35174839,4.908 8.09521935,4.756 C7.84050968,4.606 7.62764516,4.428 7.45662581,4.222 C7.28560645,4.018 7.16007097,3.782 7.08001935,3.514 C6.99996774,3.244 6.95994194,2.936 6.95994194,2.582 C6.95994194,1.734 7.17462581,1.104 7.60399355,0.688 C8.03154194,0.272 8.62283226,0.064 9.37240645,0.064 C9.72172258,0.064 10.0437484,0.106 10.3384839,0.19 C10.6332194,0.274 10.887929,0.408 11.1026129,0.598 C11.3172968,0.786 11.4846774,1.026 11.6047548,1.316 C11.7230129,1.608 11.784871,1.958 11.784871,2.366 L11.784871,2.606 L10.2802645,2.606 C10.2802645,2.198 10.2147677,1.884 10.0855935,1.662 C9.9546,1.444 9.73627742,1.332 9.43062581,1.332 C9.25596774,1.332 9.11041935,1.362 8.99398065,1.416 C8.87936129,1.472 8.78475484,1.546 8.71561935,1.638 C8.64648387,1.73 8.59736129,1.84 8.57189032,1.96 C8.5446,2.08 8.53368387,2.204 8.53368387,2.332 C8.53368387,2.598 8.58462581,2.818 8.68650968,2.998 C8.78839355,3.18 9.00671613,3.346 9.34147742,3.496 L10.5531677,4.072 C10.8515419,4.216 11.0953355,4.366 11.282729,4.524 C11.4719419,4.68 11.6247677,4.848 11.7357484,5.028 C11.8485484,5.208 11.9267806,5.404 11.9704452,5.622 C12.0141097,5.836 12.0359419,6.078 12.0359419,6.34 C12.0359419,7.244 11.7976065,7.902 11.3209355,8.314 C10.8442645,8.726 10.1802,8.934 9.32874194,8.934 C8.44089677,8.934 7.80594194,8.722 7.42205806,8.298 C7.03999355,7.874 6.85078065,7.266 6.85078065,6.474 L6.85078065,6.126 L8.42270323,6.126 L8.42270323,6.376 Z" id="Shape"></path>
                        <polygon id="Shape" points="16.1858903 6.568 16.2204581 6.568 17.3775677 0.232 19.0058903 0.232 17.2156452 8.8 15.1961613 8.8 13.4077355 0.232 15.0888194 0.232"></polygon>
                    </g>
                </g>
            </g>
        </g>
    </g>
</svg>