<?xml version="1.0" encoding="UTF-8"?>
<svg width="29px" height="29px" viewBox="0 0 29 29" version="1.1" xmlns="http://www.w3.org/2000/svg" xmlns:xlink="http://www.w3.org/1999/xlink">
    <!-- Generator: Sketch 48.1 (47250) - http://www.bohemiancoding.com/sketch -->
    <title>down-arrow (3)</title>
    <desc>Created with Sketch.</desc>
    <defs></defs>
    <g id="DataVisualization_Light-Copy-14" stroke="none" stroke-width="1" fill="none" fill-rule="evenodd" transform="translate(-293.000000, -140.000000)">
        <g id="Folder1" transform="translate(23.000000, 117.000000)" fill="#30D496" fill-rule="nonzero">
            <g id="Group" transform="translate(15.000000, 0.000000)">
                <g id="down-arrow-(3)" transform="translate(255.619355, 23.000000)">
                    <path d="M28.334767,14.5 C28.334767,6.50489396 21.9790893,0 14.1673835,0 C6.35567776,0 0,6.50489396 0,14.5 C0,22.495106 6.35567776,29 14.1673835,29 C21.9790893,29 28.334767,22.495106 28.334767,14.5 Z M1.41558277,14.5 C1.41558277,7.30322186 7.13569276,1.44881729 14.1673835,1.44881729 C21.1990743,1.44881729 26.9191843,7.30322186 26.9191843,14.5 C26.9191843,21.6967781 21.1990743,27.5511827 14.1673835,27.5511827 C7.13569276,27.5511827 1.41558277,21.6967781 1.41558277,14.5 Z" id="Shape"></path>
                    <path d="M14.6384665,20.7936842 L18.3692268,16.7322105 C18.6291347,16.4492632 18.6291347,15.9953684 18.3692268,15.7124211 C18.109319,15.4294737 17.6923835,15.4294737 17.4324757,15.7124211 L14.8333973,18.5418947 L14.8333973,7.72505263 C14.8333973,7.32421053 14.5355863,7 14.1673835,7 C13.7991807,7 13.5013697,7.32421053 13.5013697,7.72505263 L13.5013697,18.536 L10.9022913,15.7065263 C10.6423835,15.4235789 10.225448,15.4235789 9.96554019,15.7065263 C9.70563236,15.9894737 9.70563236,16.4433684 9.96554019,16.7263158 L13.6963006,20.7877895 C13.8262545,20.9292632 13.9941116,21 14.1673835,21 C14.3406554,21 14.5085125,20.9351579 14.6384665,20.7936842 Z" id="Shape"></path>
                </g>
            </g>
        </g>
    </g>
</svg>