<?xml version="1.0" encoding="UTF-8"?>
<svg width="24px" height="24px" viewBox="0 0 24 24" version="1.1" xmlns="http://www.w3.org/2000/svg" xmlns:xlink="http://www.w3.org/1999/xlink">
    <!-- Generator: Sketch 48.1 (47250) - http://www.bohemiancoding.com/sketch -->
    <title>shopping-cart</title>
    <desc>Created with Sketch.</desc>
    <defs></defs>
    <g id="DataVisualization_Light-Copy-5" stroke="none" stroke-width="1" fill="none" fill-rule="evenodd" transform="translate(-26.000000, -248.000000)" opacity="0.495867301">
        <g id="Navigation" transform="translate(0.000000, 2.000000)" fill="#232425" fill-rule="nonzero">
            <g id="Real-time" transform="translate(26.000000, 246.000000)">
                <g id="Icon_time">
                    <g id="shopping-cart">
                        <path d="M10.1052632,19.4716981 C8.94442061,19.4716981 8,20.4873958 8,21.7358491 C8,22.9843024 8.94442061,24 10.1052632,24 C11.2661057,24 12.2105263,22.9843024 12.2105263,21.7358491 C12.2104796,20.4873958 11.2660589,19.4716981 10.1052632,19.4716981 Z M10.1052632,22.7357078 C9.59256432,22.7357078 9.17547639,22.2870913 9.17547639,21.7357485 C9.17547639,21.1843554 9.59261108,20.7357891 10.1052632,20.7357891 C10.6179152,20.7357891 11.0350499,21.1844057 11.0350499,21.7357485 C11.0350499,22.2871919 10.6179152,22.7357078 10.1052632,22.7357078 Z" id="Shape"></path>
                        <path d="M17.6842105,19.4716981 C16.523368,19.4716981 15.5789474,20.4873958 15.5789474,21.7358491 C15.5789474,22.9843024 16.523368,24 17.6842105,24 C18.8450531,24 19.7894737,22.9843024 19.7894737,21.7358491 C19.7894269,20.4873958 18.8450063,19.4716981 17.6842105,19.4716981 Z M17.6842105,22.7357078 C17.1715117,22.7357078 16.7544238,22.2870913 16.7544238,21.7357485 C16.7544238,21.1843554 17.1715584,20.7357891 17.6842105,20.7357891 C18.1969094,20.7357891 18.6139973,21.1844057 18.6139973,21.7357485 C18.6139973,22.2871919 18.1968626,22.7357078 17.6842105,22.7357078 Z" id="Shape"></path>
                        <path d="M17.9333029,7.24528302 L9.43511816,7.24528302 C9.10759541,7.24528302 8.84210526,7.54937915 8.84210526,7.9245283 C8.84210526,8.29967745 9.10764258,8.60377358 9.43511816,8.60377358 L17.9333029,8.60377358 C18.2608256,8.60377358 18.5263158,8.29967745 18.5263158,7.9245283 C18.5263158,7.54932512 18.2608256,7.24528302 17.9333029,7.24528302 Z" id="Shape"></path>
                        <path d="M17.5066749,10.8679245 L9.86179374,10.8679245 C9.53116542,10.8679245 9.26315789,11.1720207 9.26315789,11.5471698 C9.26315789,11.922319 9.53116542,12.2264151 9.86179374,12.2264151 L17.5066273,12.2264151 C17.8372556,12.2264151 18.1052632,11.922319 18.1052632,11.5471698 C18.1052632,11.1720747 17.8372556,10.8679245 17.5066749,10.8679245 Z" id="Shape"></path>
                        <path d="M23.734772,4.63046163 C23.5100531,4.32983678 23.1770529,4.15745265 22.8212245,4.15745265 L4.46618046,4.15745265 L4.0954927,2.19608501 C4.01810202,1.78694093 3.76207059,1.44339887 3.41046097,1.27699249 L0.824037292,0.0533410576 C0.525443334,-0.0880302796 0.178427466,0.0613113968 0.0489117509,0.386664731 C-0.0807445897,0.712120249 0.056271131,1.09040481 0.354724464,1.23157178 L2.94119502,2.45527431 L5.79241576,17.5407251 C5.90472834,18.1348219 6.39016618,18.5660377 6.94671344,18.5660377 L21.0638796,18.5660377 C21.3893329,18.5660377 21.6531456,18.2784924 21.6531456,17.9237612 C21.6531456,17.56903 21.3893329,17.2814847 21.0638796,17.2814847 L6.94676032,17.2814847 L6.59993195,15.4464674 L21.1730046,15.4464674 C21.729505,15.4464674 22.2149897,15.0152516 22.3272554,14.4211548 L23.9755222,5.70104168 C24.0472879,5.32132654 23.9595378,4.93103538 23.734772,4.63046163 Z M21.1730046,14.1620166 L6.35716616,14.1620166 L4.70899313,5.44195456 L22.8211777,5.44195456 L21.1730046,14.1620166 Z" id="Shape"></path>
                    </g>
                </g>
            </g>
        </g>
    </g>
</svg>